<svg xmlns="http://www.w3.org/2000/svg" width="374" height="354" viewBox="0 0 374 354"><title>Icons</title><g id="0e341981-6505-4f3d-aa4f-b2a8e7ae1666" data-name="Layer 1"><polygon points="281 53.83 238 60.15 134 120.2 92 159.95 115 328.17 261 243.87 281 53.83" fill="#fff"/><polygon points="281 52.83 186 267.18 183 288.91 261 243.87 281 52.83" fill="#ebebeb"/><polygon points="186 120.68 198.5 88.46 186 84.68 186 120.68" fill="#b4b4b4"/><polygon points="171 119.34 183.5 87.12 171 83.34 135 120.12 171 119.34" fill="#b4b4b4"/><polygon points="214.33 64.32 198.13 87.92 205.39 96.67 239.5 59.79 214.33 64.32" fill="#b4b4b4"/><polygon points="48.33 241.66 92 160.45 121.77 252.42 48.33 241.66" fill="#dcdcdc"/><polygon points="92 161.95 187 266.6 190 284.87 115 328.17 92 161.95" fill="#ebebeb"/><polygon points="190 100.37 185.33 114.48 186 282.18 210 237.32 190 100.37" fill="#b4b4b4"/><polygon points="334.67 75.34 281 53.33 270 166.68 334.67 75.34" fill="#dcdcdc"/><polygon points="186 116.68 198.5 84.46 186 80.68 186 116.68" fill="#dcdcdc"/><polygon points="186 116.68 173.5 98.89 186 80.68 186 116.68" fill="#fff"/><polygon points="171 112.34 183.5 85.33 171 83.84 171 112.34" fill="#b4b4b4"/><polygon points="144.5 79.64 183 84.41 168 116.07 134 119.7 144.5 79.64" fill="#fff"/><polygon points="186 118.18 186 278.18 166 260.22 182.25 117.22 186 118.18" fill="#fff"/><polygon points="227.5 31.72 189 80.94 204 95.28 238 59.65 227.5 31.72" fill="#ebebeb"/><polyline points="203.78 235.82 189.32 114.04 186 118.18 186 278" fill="#dcdcdc"/><polygon points="281 53.33 270 166.68 286.33 140.5 281 53.33" fill="#b4b4b4"/></g></svg>