<svg xmlns="http://www.w3.org/2000/svg" width="374" height="354" viewBox="0 0 374 354"><title>Icons</title><g id="363c440a-a9bd-4b77-b73d-0304aa977596" data-name="Layer 1"><polygon points="282 85.5 239 67 135 67 93 82.5 116 264 262 264 282 85.5" fill="#fff"/><polygon points="282 84.5 187 244 184 264 262 264 282 84.5" fill="#ebebeb"/><polygon points="187 97.5 199.5 72.5 187 61.5 187 97.5" fill="#b4b4b4"/><polygon points="172 87.5 184.5 62.5 172 51.5 136 67.5 172 87.5" fill="#b4b4b4"/><polygon points="215.33 57.5 199.13 71.75 206.39 84.69 240.5 67.5 215.33 57.5" fill="#b4b4b4"/><polygon points="49.33 139 93 83 122.77 192.16 49.33 139" fill="#dcdcdc"/><polygon points="93 84.5 188 244 191 264 116 264 93 84.5" fill="#ebebeb"/><polygon points="191 79.5 186.33 90.92 187 259 211 228 191 79.5" fill="#b4b4b4"/><polygon points="335.67 138 282 85 271 192 335.67 138" fill="#dcdcdc"/><polygon points="187 93.5 199.5 68.5 187 57.5 187 93.5" fill="#dcdcdc"/><polygon points="187 93.5 174.5 68.5 187 57.5 187 93.5" fill="#fff"/><polygon points="172 80.5 184.5 60.71 172 52 172 80.5" fill="#b4b4b4"/><polygon points="145.5 32.5 184 59.5 169 82.5 135 66.5 145.5 32.5" fill="#fff"/><polygon points="187 95 187 255 167 225.5 183.25 91.88 187 95" fill="#fff"/><polygon points="228.5 32.5 190 59.5 205 82.5 239 66.5 228.5 32.5" fill="#ebebeb"/><polyline points="204.78 223 190.32 92.83 187 95 187 255" fill="#dcdcdc"/><polygon points="282 85 271 192 287.33 175.25 282 85" fill="#b4b4b4"/></g></svg>