<svg xmlns="http://www.w3.org/2000/svg" width="374" height="354" viewBox="0 0 374 354"><title>Icons</title><g id="573029ad-5b95-48aa-be7e-bd64e6ad07fa" data-name="Layer 1"><polygon points="282 138.07 239 103.92 135 66.07 93 66.28 116 256.16 262 309.3 282 138.07" fill="#fff"/><polygon points="282 137.07 187 262 184 280.91 262 309.3 282 137.07" fill="#ebebeb"/><polygon points="187 115.5 199.5 95.05 187 79.5 187 115.5" fill="#b4b4b4"/><polygon points="172 100.04 184.5 79.59 172 64.04 136 66.94 172 100.04" fill="#b4b4b4"/><polygon points="215.33 85.81 199.13 94.16 206.39 109.75 240.5 104.97 215.33 85.81" fill="#b4b4b4"/><polygon points="49.33 106.89 93 66.78 122.77 186.78 49.33 106.89" fill="#dcdcdc"/><polygon points="93 68.28 188 262.36 191 283.45 116 256.16 93 68.28" fill="#ebebeb"/><polygon points="191 98.95 186.33 108.67 187 277 211 254.73 191 98.95" fill="#b4b4b4"/><polygon points="335.67 210.11 282 137.57 271 240.57 335.67 210.11" fill="#dcdcdc"/><polygon points="187 111.5 199.5 91.05 187 75.5 187 111.5" fill="#dcdcdc"/><polygon points="187 111.5 174.5 81.95 187 75.5 187 111.5" fill="#fff"/><polygon points="172 93.04 184.5 77.8 172 64.54 172 93.04" fill="#b4b4b4"/><polygon points="154.39 44.87 184 76.41 169 93.95 135 65.57 154.39 44.87" fill="#fff"/><polygon points="187 113 187 273 167 236.22 183.25 108.51 187 113" fill="#fff"/><polygon points="229.56 69.41 190 78.59 205 107.05 239 103.42 229.56 69.41" fill="#ebebeb"/><polyline points="204.78 247.47 190.32 112.03 187 113 187 273" fill="#dcdcdc"/><polygon points="282 137.57 271 240.57 287.33 229.77 282 137.57" fill="#b4b4b4"/></g></svg>